<svg width="63" height="64" viewBox="0 0 63 64" fill="none" xmlns="http://www.w3.org/2000/svg">
<path d="M0 0V64H62.08V0H0ZM33.784 49.9158C33.784 56.145 30.2412 58.9782 25.072 58.9782C20.4078 58.9782 17.699 56.4864 16.3229 53.4826L21.0741 50.5174C21.9908 52.1728 22.8247 53.5894 24.8237 53.5894C26.7399 53.5894 27.9484 52.8362 27.9484 49.8134V29.376H33.784V49.9158ZM47.5782 58.9782C42.1606 58.9782 38.6592 56.3158 36.952 52.8342L41.7011 50.0032C42.951 52.0896 44.5776 53.6512 47.4541 53.6512C49.8688 53.6512 51.392 52.4054 51.392 50.673C51.392 48.6122 49.8067 47.8784 47.1414 46.6944L45.6928 46.033C41.4838 44.1878 38.6925 41.8666 38.6925 36.9664C38.6925 32.4586 42.0115 29.0197 47.2346 29.0197C50.9427 29.0197 53.608 30.3531 55.5286 33.8282L50.9968 36.8256C50.0035 34.991 48.9149 34.2442 47.247 34.2442C45.5418 34.2442 44.4493 35.3578 44.4493 36.8256C44.4493 38.6432 45.5254 39.36 48.0291 40.4736L49.4838 41.135C54.4442 43.311 57.2378 45.551 57.2378 50.5856C57.2522 56.0128 53.128 58.9696 47.5843 58.9696L47.5782 58.9782Z" fill="#986DFF"/>
</svg>
